{
  "accessors": [
    {
      "bufferView": 2,
      "componentType": 5126,
      "count": 34059,
      "max": [
        0.8354278206825256,
        0.6374203562736511,
        0.7010767459869385
      ],
      "min": [
        -0.619641900062561,
        -0.6454222798347473,
        -0.6660470962524414
      ],
      "type": "VEC3"
    },
    {
      "bufferView": 2,
      "byteOffset": 408708,
      "componentType": 5126,
      "count": 34059,
      "max": [
        0.9999964833259583,
        0.9999538064002991,
        1.0
      ],
      "min": [
        -0.9999894499778748,
        -0.9998617172241211,
        -0.9999879598617554
      ],
      "type": "VEC3"
    },
    {
      "bufferView": 1,
      "componentType": 5126,
      "count": 34059,
      "max": [
        0.9970288872718811,
        0.9970289468765259
      ],
      "min": [
        0.00297106197103858,
        0.010253548622131348
      ],
      "type": "VEC2"
    },
    {
      "bufferView": 0,
      "componentType": 5125,
      "count": 149994,
      "type": "SCALAR"
    }
  ],
  "asset": {
    "extras": {
      "author": "Scorpion (https://sketchfab.com/XDXD123)",
      "license": "CC-BY-NC-4.0 (http://creativecommons.org/licenses/by-nc/4.0/)",
      "source": "https://sketchfab.com/3d-models/dragon-head-with-human-form-43b8b08e096f4fd3a87a12f98a668d54",
      "title": "Dragon Head with Human Form"
    },
    "generator": "Sketchfab-15.55.0",
    "version": "2.0"
  },
  "bufferViews": [
    {
      "buffer": 0,
      "byteLength": 599976,
      "name": "floatBufferViews",
      "target": 34963
    },
    {
      "buffer": 0,
      "byteLength": 272472,
      "byteOffset": 599976,
      "byteStride": 8,
      "name": "floatBufferViews",
      "target": 34962
    },
    {
      "buffer": 0,
      "byteLength": 817416,
      "byteOffset": 872448,
      "byteStride": 12,
      "name": "floatBufferViews",
      "target": 34962
    }
  ],
  "buffers": [
    {
      "byteLength": 1689864,
      "uri": "scene.bin"
    }
  ],
  "images": [
    {
      "uri": "textures/default_baseColor.jpeg"
    }
  ],
  "materials": [
    {
      "doubleSided": true,
      "name": "default",
      "pbrMetallicRoughness": {
        "baseColorTexture": {
          "index": 0
        },
        "metallicFactor": 0.0
      }
    }
  ],
  "meshes": [
    {
      "name": "high_poly_default_0",
      "primitives": [
        {
          "attributes": {
            "NORMAL": 1,
            "POSITION": 0,
            "TEXCOORD_0": 2
          },
          "indices": 3,
          "material": 0,
          "mode": 4
        }
      ]
    }
  ],
  "nodes": [
    {
      "children": [
        1
      ],
      "matrix": [
        1.0,
        0.0,
        0.0,
        0.0,
        0.0,
        2.220446049250313e-16,
        -1.0,
        0.0,
        0.0,
        1.0,
        2.220446049250313e-16,
        0.0,
        0.0,
        0.0,
        0.0,
        1.0
      ],
      "name": "Sketchfab_model"
    },
    {
      "children": [
        2
      ],
      "matrix": [
        0.009999999776482582,
        0.0,
        0.0,
        0.0,
        0.0,
        0.0,
        0.009999999776482582,
        0.0,
        0.0,
        -0.009999999776482582,
        0.0,
        0.0,
        0.0,
        0.0,
        0.0,
        1.0
      ],
      "name": "model.fbx"
    },
    {
      "children": [
        3
      ],
      "name": "RootNode"
    },
    {
      "children": [
        4
      ],
      "matrix": [
        68.72522735595703,
        0.0,
        0.0,
        0.0,
        0.0,
        -3.004075220131109e-06,
        -68.72522735595696,
        0.0,
        0.0,
        68.72522735595696,
        -3.004075220131109e-06,
        0.0,
        0.0,
        0.0,
        0.0,
        1.0
      ],
      "name": "high_poly"
    },
    {
      "mesh": 0,
      "name": "high_poly_default_0"
    }
  ],
  "samplers": [
    {
      "magFilter": 9729,
      "minFilter": 9987,
      "wrapS": 10497,
      "wrapT": 10497
    }
  ],
  "scene": 0,
  "scenes": [
    {
      "name": "Sketchfab_Scene",
      "nodes": [
        0
      ]
    }
  ],
  "textures": [
    {
      "sampler": 0,
      "source": 0
    }
  ]
}
